<?xml version="1.0" standalone="no"?>
<!DOCTYPE svg PUBLIC "-//W3C//DTD SVG 20010904//EN"
 "http://www.w3.org/TR/2001/REC-SVG-20010904/DTD/svg10.dtd">
<svg version="1.0" xmlns="http://www.w3.org/2000/svg"
 width="512.000000pt" height="512.000000pt" viewBox="0 0 512.000000 512.000000"
 preserveAspectRatio="xMidYMid meet">

<g transform="translate(0.000000,512.000000) scale(0.100000,-0.100000)"
fill="#000000" stroke="none">
<path d="M840 5024 c-155 -41 -269 -167 -299 -328 -15 -83 -15 -2359 0 -2441
31 -168 166 -303 334 -334 32 -6 169 -11 304 -11 l246 0 29 -51 29 -51 -164
-159 c-141 -137 -167 -158 -189 -154 -157 33 -135 48 -604 -407 -221 -214
-409 -404 -419 -423 -25 -47 -31 -102 -17 -154 9 -36 40 -74 176 -216 198
-208 243 -235 351 -204 51 14 162 116 683 628 l215 211 1391 0 1391 0 22 24
c22 23 23 29 19 193 -3 162 -4 170 -30 215 -37 62 -108 123 -177 149 -48 19
-81 23 -225 27 l-168 4 45 47 c61 63 146 176 193 255 l38 66 319 0 c255 0 332
3 388 16 128 29 239 126 292 254 l22 55 3 1210 c2 840 -1 1226 -8 1262 -25
117 -109 232 -208 282 -105 53 -6 51 -2042 50 -1626 0 -1893 -2 -1940 -15z
m3894 -168 c50 -25 97 -72 122 -122 18 -38 19 -72 19 -1259 l0 -1220 -22 -41
c-12 -22 -40 -57 -62 -77 -67 -61 -106 -67 -424 -67 -255 0 -279 1 -273 16 29
76 86 330 86 387 0 4 121 7 269 7 l270 0 20 26 c21 27 21 29 21 1091 0 1175 4
1103 -63 1143 -31 20 -65 20 -1912 20 -1868 0 -1880 0 -1913 -20 -66 -40 -63
19 -60 -1156 l3 -1066 24 -19 c21 -17 41 -19 221 -19 l197 0 16 -102 c14 -88
49 -231 72 -290 7 -17 -7 -18 -207 -18 -263 0 -300 8 -370 81 -84 86 -79 -4
-76 1350 l3 1194 22 40 c28 53 78 99 133 124 45 21 52 21 1945 18 1857 -2
1901 -2 1939 -21z m-134 -1236 l0 -980 -209 0 -208 0 -7 82 c-21 254 -127 533
-280 738 -78 105 -245 267 -346 336 -671 462 -1594 285 -2046 -392 -136 -204
-223 -448 -240 -678 l-7 -86 -143 0 -144 0 0 980 0 980 1815 0 1815 0 0 -980z
m-1657 255 c622 -108 1077 -652 1077 -1286 0 -341 -126 -651 -367 -900 -243
-251 -539 -383 -888 -396 -374 -14 -713 123 -979 397 -144 148 -236 300 -301
493 -52 156 -68 273 -62 457 7 198 40 338 121 506 73 152 142 249 256 364 189
190 429 317 690 364 104 19 347 20 453 1z m-1294 -2282 l50 -58 -146 -140
c-80 -77 -150 -141 -154 -143 -5 -2 -31 20 -58 50 l-50 53 147 148 c81 81 150
147 154 147 3 0 29 -26 57 -57z m326 -260 c448 -269 1036 -270 1483 -3 l84 50
246 0 c241 0 248 -1 299 -25 76 -35 93 -68 93 -177 l0 -88 -1334 0 c-1058 0
-1335 3 -1339 13 -3 6 54 72 126 145 l132 132 66 0 c61 0 72 -4 144 -47z
m-761 -135 c97 -102 146 -160 146 -175 0 -22 -49 -71 -573 -581 -117 -114
-216 -202 -226 -202 -28 0 -323 307 -319 332 4 30 778 777 805 778 15 0 65
-46 167 -152z"/>
<path d="M2555 3676 c-234 -38 -441 -143 -604 -305 -288 -286 -395 -693 -285
-1081 104 -364 399 -654 769 -757 93 -26 113 -28 285 -28 203 1 267 12 419 74
268 111 495 342 601 611 59 151 86 346 70 507 -49 476 -402 871 -865 968 -107
22 -290 28 -390 11z m390 -176 c44 -11 125 -42 180 -68 274 -133 458 -376 516
-679 17 -94 6 -319 -20 -411 -99 -339 -378 -598 -720 -667 -114 -24 -324 -16
-431 15 -328 94 -581 356 -662 686 -27 112 -29 302 -4 413 22 99 68 211 124
301 63 103 205 242 309 304 93 55 245 110 343 125 94 14 271 5 365 -19z"/>
<path d="M2485 3335 c-31 -30 -32 -68 -4 -114 19 -31 19 -36 6 -70 -8 -20 -18
-58 -21 -85 -5 -27 -19 -64 -35 -86 -14 -20 -35 -56 -45 -78 -18 -40 -21 -42
-61 -42 -39 0 -46 4 -95 63 -70 82 -77 87 -120 87 -46 0 -74 -28 -74 -74 0
-27 15 -50 79 -125 43 -51 86 -96 96 -102 10 -5 39 -9 65 -9 l47 0 -7 -31 c-3
-17 -6 -40 -6 -50 0 -18 -9 -19 -123 -19 -116 0 -125 -1 -145 -23 -29 -31 -29
-87 -1 -113 18 -16 40 -19 149 -22 l128 -4 7 -34 c3 -20 9 -42 12 -50 4 -11
-7 -14 -58 -14 -35 0 -69 -4 -75 -8 -23 -15 -156 -176 -165 -200 -18 -48 22
-102 75 -102 24 0 42 13 93 67 35 38 63 71 63 76 0 4 29 7 65 7 l64 0 78 -79
c63 -63 89 -82 133 -97 134 -45 257 -9 364 108 l64 68 65 0 65 0 47 -57 c66
-80 83 -93 117 -93 38 0 78 40 78 79 0 22 -19 52 -79 124 -44 52 -87 97 -96
101 -9 3 -43 6 -76 6 -32 0 -59 3 -59 6 0 3 5 25 11 49 l11 43 130 4 c122 3
131 4 149 27 26 32 25 82 -4 109 -21 20 -34 22 -144 22 l-120 0 -7 38 c-10 62
-10 62 42 62 26 1 57 6 68 13 12 7 56 52 98 101 60 70 76 96 76 121 0 45 -32
75 -80 75 -36 0 -43 -5 -102 -75 -61 -73 -64 -74 -109 -75 -42 0 -48 3 -59 30
-7 17 -30 55 -51 86 -29 41 -39 65 -39 94 0 22 -7 57 -16 78 -14 37 -14 42 7
81 24 47 20 80 -13 111 -30 27 -73 26 -103 -5 -14 -13 -25 -28 -25 -32 0 -4
-45 -8 -100 -8 -91 0 -100 2 -111 21 -25 47 -88 56 -124 19z m413 -493 c45
-85 63 -162 63 -277 0 -110 -17 -188 -56 -265 -26 -52 -81 -120 -96 -120 -5 0
-9 154 -9 360 l0 360 34 0 c30 0 36 -5 64 -58z"/>
</g>
</svg>
